<svg xmlns="http://www.w3.org/2000/svg" viewBox="135 88 300 300">
  <defs>
    <linearGradient id="vGradient" x1="0%" y1="0%" x2="100%" y2="0%">
      <stop offset="15%" stop-color="#1AC47C"/>
      <stop offset="85%" stop-color="#097742"/>
    </linearGradient>
  </defs>
  <path fill="url(#vGradient)" d="
    M383.419800,130.315704
    C396.050323,124.669411 408.663361,120.229607 421.909668,117.757393
    C422.692749,120.015701 421.147736,120.554230 420.173279,121.226318
    C376.987610,151.011200 344.621918,190.643295 316.882507,234.514847
    C292.524261,273.038940 272.126587,313.616730 254.093643,355.417572
    C252.648560,358.767303 250.836517,360.299042 247.027237,360.240112
    C233.035538,360.023590 219.037827,360.007416 205.045120,360.162292
    C201.133759,360.205597 199.069580,358.745483 197.469177,355.202515
    C181.226913,319.245789 164.870956,283.340210 148.429092,247.474289
    C146.892807,244.123093 147.488419,242.425507 150.792953,240.883896
    C162.109390,235.604553 173.369675,230.199234 184.555099,224.648010
    C188.040115,222.918427 189.770355,223.510101 191.415787,227.157440
    C201.548264,249.617661 211.890717,271.983185 222.183731,294.370850
    C222.993759,296.132721 223.358643,298.244812 225.507629,299.163330
    C227.789001,298.194305 228.217743,295.870178 229.183899,294.030579
    C252.363831,249.895401 280.889954,209.744400 317.522217,175.667358
    C337.150574,157.408127 358.671204,141.835632 383.419800,130.315704 z"/>
</svg>
