<svg version="1.1" xmlns="http://www.w3.org/2000/svg" viewBox="148 117 752 292">
  <defs>
    <linearGradient id="vGradient" x1="0%" y1="0%" x2="100%" y2="0%">
      <stop offset="15%" stop-color="#1AC47C"/>
      <stop offset="85%" stop-color="#097742"/>
    </linearGradient>
  </defs>

  <path fill="url(#vGradient)" d="
    M383.419800,130.315704 
    C396.050323,124.669411 408.663361,120.229607 421.909668,117.757393 
    C422.692749,120.015701 421.147736,120.554230 420.173279,121.226318 
    C376.987610,151.011200 344.621918,190.643295 316.882507,234.514847 
    C292.524261,273.038940 272.126587,313.616730 254.093643,355.417572 
    C252.648560,358.767303 250.836517,360.299042 247.027237,360.240112 
    C233.035538,360.023590 219.037827,360.007416 205.045120,360.162292 
    C201.133759,360.205597 199.069580,358.745483 197.469177,355.202515 
    C181.226913,319.245789 164.870956,283.340210 148.429092,247.474289 
    C146.892807,244.123093 147.488419,242.425507 150.792953,240.883896 
    C162.109390,235.604553 173.369675,230.199234 184.555099,224.648010 
    C188.040115,222.918427 189.770355,223.510101 191.415787,227.157440 
    C201.548264,249.617661 211.890717,271.983185 222.183731,294.370850 
    C222.993759,296.132721 223.358643,298.244812 225.507629,299.163330 
    C227.789001,298.194305 228.217743,295.870178 229.183899,294.030579 
    C252.363831,249.895401 280.889954,209.744400 317.522217,175.667358 
    C337.150574,157.408127 358.671204,141.835632 383.419800,130.315704 z"/>

  <path fill="#35312b" d="
    M410.999878,310.316223 
    C391.342255,310.308350 372.184631,310.283112 353.027069,310.302155 
    C347.218323,310.307922 346.799377,310.925049 348.423889,316.284210 
    C353.632294,333.466339 369.695404,341.849579 390.040680,338.272430 
    C397.634613,336.937286 404.121521,333.207581 409.866394,328.247467 
    C412.237122,326.200562 413.901093,326.116119 416.239197,328.261078 
    C419.669312,331.407837 423.271027,334.419769 427.085602,337.078979 
    C430.263763,339.294495 429.656708,340.966614 427.449036,343.428436 
    C417.226715,354.827484 404.190979,360.526428 389.271271,361.928925 
    C371.884796,363.563354 355.280121,361.096588 341.093872,349.880157 
    C324.480957,336.745056 318.834686,318.724243 319.964813,298.444946 
    C321.143921,277.287354 330.125366,260.221039 349.544800,250.159195 
    C373.561371,237.715439 409.953766,241.040909 426.925964,266.073547 
    C434.682098,277.513306 437.684357,290.229370 437.829376,303.832855 
    C437.879639,308.550079 436.152679,310.747955 430.983429,310.404114 
    C424.515564,309.973877 417.996704,310.310364 410.999878,310.316223 
    M354.882080,290.641693 
    C372.903198,290.641693 390.924286,290.641693 408.954102,290.641693 
    C408.985504,287.639191 408.480804,285.920166 407.768921,284.210602 
    C402.990784,272.735657 392.738678,266.271271 379.279480,266.299194 
    C365.512939,266.327759 354.376862,273.223816 349.798615,284.555328 
    C347.730621,289.673859 348.141693,290.271088 354.882080,290.641693 z"/>

  <path fill="#35312b" d="
    M552.567139,281.492981 
    C538.594116,315.041321 524.662903,348.191589 510.997253,381.450958 
    C504.436554,397.418274 493.929901,407.860107 475.817932,408.725006 
    C470.286530,408.989136 464.869507,408.155212 459.487244,407.041840 
    C457.791168,406.690948 456.130096,405.973175 456.369293,403.819763 
    C456.962463,398.479156 456.140198,393.174133 456.118011,387.851105 
    C456.104523,384.614136 457.337097,383.252472 460.718231,384.111328 
    C462.637634,384.598877 464.663361,384.757965 466.652130,384.867371 
    C477.253540,385.450562 481.650818,382.608246 486.421906,373.167480 
    C490.337219,365.420166 491.362549,358.545685 487.393005,349.811249 
    C473.966187,320.267212 461.688385,290.200684 448.998810,260.322205 
    C447.258667,256.224945 445.673492,252.061874 443.746613,247.256012 
    C449.474457,246.101685 454.651215,247.244537 459.598511,246.471420 
    C469.104004,244.986008 474.023651,248.445374 477.388611,257.787048 
    C484.375916,277.185028 492.765930,296.078308 500.608368,315.167175 
    C502.051666,318.680145 503.632141,322.136780 505.652344,326.774200 
    C508.685120,319.443695 511.290680,313.215668 513.842224,306.965637 
    C521.454712,288.318848 529.122009,269.693695 536.570435,250.981476 
    C537.803284,247.884323 539.337524,246.480362 542.736816,246.560303 
    C550.493713,246.742737 558.257812,246.617920 566.777161,246.617920 
    C562.628479,259.064941 557.087219,269.871704 552.567139,281.492981 z"/>

  <path fill="#35312b" d="
    M620.376953,335.733521 
    C628.852356,337.928497 636.923340,338.010315 644.893127,335.433929 
    C652.671448,332.919434 658.782043,328.479828 659.539368,319.644928 
    C660.294800,310.831329 655.798035,304.699707 648.190491,300.769073 
    C638.840149,295.937958 628.762512,292.901215 618.937317,289.251923 
    C611.252136,286.397491 603.991577,282.834076 597.287476,278.035370 
    C573.885071,261.284271 579.106140,221.069550 607.096069,209.908707 
    C623.695923,203.289551 640.464722,202.672745 657.383057,208.304779 
    C666.721436,211.413483 673.670227,217.788086 679.530334,225.510300 
    C681.424683,228.006592 681.373779,229.756577 678.602600,231.626846 
    C674.190857,234.604324 669.904175,237.786774 665.734924,241.097107 
    C662.899414,243.348434 661.002136,242.921982 658.623108,240.254120 
    C648.937866,229.393127 636.575012,228.044876 623.373108,231.395309 
    C616.251831,233.202576 611.260620,237.744110 610.560791,245.611649 
    C609.904236,252.993729 614.201355,257.405426 620.188721,260.527130 
    C630.558594,265.933716 641.909851,268.925629 652.601868,273.542175 
    C657.331970,275.584564 662.156189,277.513885 666.616150,280.058167 
    C683.386780,289.625244 689.269409,304.742401 687.175049,323.181824 
    C685.121704,341.260742 674.673950,353.042419 657.519409,358.395264 
    C636.135864,365.067688 615.150635,363.912292 595.074768,353.292572 
    C585.414490,348.182465 579.013550,340.041077 574.072021,330.537262 
    C572.732483,327.961029 573.216797,326.227264 575.714111,324.756714 
    C580.878357,321.715759 586.032043,318.646942 591.062622,315.392456 
    C594.212280,313.354828 595.136292,315.669312 596.340027,317.668945 
    C601.835693,326.797882 609.696716,332.810547 620.376953,335.733521 z"/>

  <path fill="#35312b" d="
    M704.102722,280.000000 
    C704.090881,270.167175 704.168274,260.833008 704.023438,251.502243 
    C703.966980,247.863937 705.338013,246.428589 709.022339,246.543137 
    C715.182495,246.734634 721.362671,246.786865 727.516235,246.503296 
    C731.361877,246.326080 732.331848,247.805862 732.308533,251.429703 
    C732.176453,271.927765 732.445618,292.429504 732.200073,312.925476 
    C731.925110,335.877930 754.734741,341.898560 768.487976,334.770233 
    C776.512024,330.611359 780.662964,323.986145 780.736267,315.088989 
    C780.907898,294.258270 780.958252,273.424103 780.747375,252.594498 
    C780.698242,247.743500 782.167236,246.145432 787.014954,246.479446 
    C792.985962,246.890900 799.010254,246.680542 805.005737,246.521210 
    C808.068848,246.439789 809.076172,247.598724 809.025696,250.626938 
    C808.650879,273.115997 809.372375,295.609772 808.449280,318.102142 
    C807.542664,340.192657 792.252441,357.619446 770.367859,361.147217 
    C759.544861,362.891907 748.803101,362.916748 738.159119,360.213989 
    C718.703918,355.273743 705.560425,338.557251 704.570801,318.478210 
    C703.946594,305.812317 704.332336,293.157471 704.102722,280.000000 z"/>

  <path fill="#35312b" d="
    M857.192993,328.000000 
    C857.204407,337.323334 857.104370,346.148926 857.280579,354.968964 
    C857.353455,358.619049 855.990356,360.110077 852.340515,360.020966 
    C846.350769,359.874725 840.352295,359.857910 834.362854,360.004303 
    C830.603699,360.096161 828.966614,358.737030 828.973511,354.787750 
    C829.033508,320.493256 829.014832,286.198334 828.885071,251.904083 
    C828.869263,247.715607 830.477539,246.375275 834.520630,246.550980 
    C840.335876,246.803711 846.180786,246.794205 851.994446,246.512634 
    C855.830200,246.326889 857.643005,247.430389 857.212158,251.510986 
    C856.972351,253.782669 857.169128,256.100464 857.169128,258.462524 
    C859.601929,258.599701 860.026123,256.844299 860.910950,255.833420 
    C870.120483,245.312286 881.937439,242.556885 895.258057,244.095932 
    C898.450623,244.464813 899.926147,246.096542 899.889160,249.355087 
    C899.823059,255.180634 899.901489,261.008118 899.948486,266.834534 
    C899.975098,270.123535 899.112976,271.692322 895.199951,270.754883 
    C873.877686,265.646729 856.869751,279.287628 857.233459,302.029266 
    C857.369202,310.517151 857.214905,319.009613 857.192993,328.000000 z"/>
</svg>